<?xml version="1.0" encoding="UTF-8"?>
<svg id="Layer_2" data-name="Layer 2" xmlns="http://www.w3.org/2000/svg" viewBox="0 0 194.69 195.1">
  <defs>
    <style>
      .cls-1 {
        fill: #4f46e5;
      }
    </style>
  </defs>
  <g id="Layer_1-2" data-name="Layer 1">
    <g id="PAXyVx.tif">
      <g>
        <path class="cls-1" d="M187.1,0c3.18,1.18,6.71,3.84,7.2,7.46,1.18,8.63-.81,19.65.03,28.53-1.78,9.81-11.1,7.84-18.56,8.48l-29.24,18.36,2.86-18.66h-8.95c-.66,0-3.56-1.03-4.27-1.44-2.96-1.74-4.43-4.93-4.7-8.25-.49-6.19-.7-20.27.11-26.19.58-4.22,3.6-7.04,7.52-8.29h47.99ZM140.07,37.7h16.95c-.6,3.77-1.72,7.61-2.12,11.4-.06.53-.53.91.4.78l19.22-12.01c4.44-1.33,13.17,2.62,13.75-3.77.55-6.04.55-18.37,0-24.41-.18-1.94-.81-2.99-2.87-3.23-14.26,1.08-30.57-1.4-44.59-.02-1.53.15-2.64.9-2.85,2.48.74,8.19-.92,17.92.01,25.93.13,1.14.94,2.6,2.1,2.85Z"/>
        <path class="cls-1" d="M90.75,169.86l4.56,4.76c-5.04,4.13-9.52,9.12-14.46,13.33-9.37,8.01-20.58,10.24-30.67,1.72-15.76-13.31-29.87-31.73-45.49-45.53-6.38-8.15-6.23-19.79.38-27.78,4.44-5.36,10.77-10.13,15.41-15.43l23.01,23.09-12.16,12.52c-.84.91-.94,2.2-.68,3.35.52,2.28,9.41,9.21,11.16,11.69.36,0,2.11-5.36,2.53-6.22,7.04-14.5,23.48-12.4,36.85-15.9.15-.19.13-1.49-.04-1.79-.16-.28-4.34-2.87-5.26-3.69-4.98-4.46-8.21-10.46-9.72-16.94-5.62-2.04-9.56-5.77-10.1-11.99-.8-9.26-.69-27.62,2.29-36.2,14.55-41.87,77.05-33.58,79.62,12.18.63,11.16.77,27.41,0,38.5-.67,9.73-7.8,10.42-16,10.27-1.29,1.18-2.11,2.61-3.43,3.81-.92.84-5.47,3.77-5.64,4.07s-.19,1.6-.04,1.79c14.62,3.7,30.56,1.17,37.46,17.57,2.99,7.11,4.88,15.51,7.43,22.84h-67.03ZM131.5,83.41v-15.04c0-5-4.42-14.02-7.63-17.89-15.39-18.58-44.7-16.48-56.8,4.49-1.53,2.66-4.5,9.74-4.5,12.63v15.81l3-1.19.05-3.76h7.81c.98,0,4.63-1.06,5.81-1.42,7.2-2.2,12.77-6.88,17.8-12.28,4.9,5.44,10.68,10.1,17.8,12.28,1.18.36,4.83,1.42,5.81,1.42h7.81l.05,3.76,3,1.19ZM113.22,119.59h-15.81c-.88-.63-.75-5.63-.41-6.12l21.84-.44c4.99-8.43,2.72-18.79,2.96-28.13-4.77-.69-9.6-1.79-14.06-3.84-3.97-1.82-7.32-4.52-10.72-7.19-7.26,6.27-15.66,10.08-25.27,11.11.26,8.32-1.23,17.31,1.94,25.18,6.37,15.79,26.85,20.81,39.52,9.42ZM65.61,89.12c-4.44,1.83-3.97,8.42,0,10.66v-10.66ZM128.45,99.78c4.04-2.32,4.31-8.59,0-10.66v10.66ZM131.5,105.49l-3.74,1.21-1.97,6.4c1.48.34,5.71-.09,5.71-2.09v-5.52ZM20.48,109.69c-.58.88-3.57,2.83-3.07,3.8l14.11,14.09c.58-.88,3.57-2.83,3.07-3.8l-14.11-14.09ZM12.49,117.69c-6.27,5.31-8.3,13.8-3.93,21.06l46.27,46.66c5.91,4.47,14.25,4.33,19.93-.5.62-.52,2.49-2.12,2.11-2.86l-14.11-14.09c-3.67,3.86-9,3.65-12.96.38-8.17-6.74-15.48-16.6-23.61-23.61-3.17-4.13-2.51-8.78.55-12.72l-14.26-14.33ZM106.36,130.63c-3.62,1.06-7.44,1.75-11.23,1.51-2.35-.14-4.67-1.14-7.05-.95l8.95,8.94,9.33-9.51ZM149.02,163.38c-3.34-9.83-4-20.65-15.68-23.74-7.09-1.87-15.05-2.35-22.23-4.09l-1.14.38-12.98,12.94-14.06-13.31c-7.4,1.86-16.22,2.12-23.4,4.39-8.38,2.64-10.15,9.14-12.44,16.77,2.8,2.14,6.97,9.7,10.9,7.21l13.92-12.73,12.19,12.18h64.93ZM71.9,160.02c-.77.47-4.1,3.14-3.98,3.88l14.25,14.33,3.99-3.99-14.27-14.21Z"/>
        <path class="cls-1" d="M123.12,13.33l-1.91,6.09c-2.71-.92-5.49-1.63-8.3-2.17C69.64,9.07,28.54,35.36,17.63,77.69l8.75-4.95,3.05,5.71-18.63,10.65L.11,70.46l5.33-2.51,6.09,9.36C21.92,28.33,75.38-2.04,123.12,13.33Z"/>
        <path class="cls-1" d="M192.79,69.35l-3.21,5.66-8.95-5.31c1.9,6.5,3.57,13.22,4.18,20,1.87,20.55-4.57,44.44-17.36,60.71-.35.45-1.72,2.35-2.19,2.28l-4.39-3.9c17.1-21.78,22.54-51.13,13.65-77.57l-5.37,8.71c-.61.35-5.63-2.81-5.62-3.19l11.19-18,18.07,10.6Z"/>
        <polygon class="cls-1" points="181.77 12.57 181.77 19.04 144.64 19.04 144.07 18.47 144.07 12.57 181.77 12.57"/>
        <polygon class="cls-1" points="169.2 25.14 169.2 31.61 144.64 31.61 144.07 31.04 144.07 25.14 169.2 25.14"/>
        <rect class="cls-1" x="175.68" y="25.14" width="6.09" height="6.47"/>
      </g>
    </g>
  </g>
</svg>