<?xml version="1.0" encoding="UTF-8"?>
<svg id="Layer_2" data-name="Layer 2" xmlns="http://www.w3.org/2000/svg" viewBox="0 0 233.25 165.9">
  <defs>
    <style>
      .cls-1 {
        fill: #4f46e5;
      }
    </style>
  </defs>
  <g id="Layer_1-2" data-name="Layer 1">
    <g id="yNDjaN.tif">
      <g>
        <path class="cls-1" d="M163.12,165.9h-92.64l-.34-3.63c-1.64-17.68,7.2-34.95,22.53-44,15.51-9.16,33.83-8.94,49.02.57,15.06,9.43,23.19,25.65,21.73,43.39l-.3,3.67ZM77.94,157.9h77.64c-.1-13.24-6.71-25.12-18.14-32.28-12.61-7.9-27.82-8.07-40.71-.46-11.62,6.87-18.74,19.44-18.79,32.74Z"/>
        <path class="cls-1" d="M60.81,165.9H0l.33-4.3c.06-.84.02-1.83-.02-2.88-.06-1.39-.12-2.83.04-4.3.13-1.2.55-2.69,1.09-4.5.1-.34.2-.66.27-.94,3.66-12.96,13.68-22.7,26.8-26.05,13.14-3.35,26.61.39,36.04,10.01l1.98,2.03-1.26,2.54c-3.86,7.81-5.42,15.69-4.79,24.09l.33,4.3ZM8.28,157.9h44.07c0-7.31,1.49-14.31,4.49-21.22-7.25-6.17-16.91-8.42-26.35-6-10.33,2.64-18.21,10.29-21.08,20.47-.08.3-.19.66-.3,1.04-.26.88-.74,2.5-.8,3.08-.08.75-.06,1.66-.02,2.63Z"/>
        <path class="cls-1" d="M233.25,165.9h-60.5l.33-4.3c.63-8.4-.93-16.28-4.79-24.09l-1.26-2.55,1.99-2.03c10.21-10.39,25.12-13.87,38.92-9.09,13.98,4.85,23.66,16.96,25.27,31.6l.02.43v10.02ZM181.22,157.9h44.03v-1.79c-1.34-11.45-8.95-20.91-19.92-24.71-10.14-3.52-20.65-1.53-28.6,5.27,3,6.91,4.49,13.91,4.49,21.22Z"/>
        <path class="cls-1" d="M118.02,0c.51.44,2.07,1.69,2.07,2.28v25.53c.82-.32.95-1.31,1.66-1.86,2.78-2.13,6.12-.02,5.29,3.64-.18.77-7.96,10.59-8.62,10.87-.91.39-2.39.39-3.3,0-.66-.28-8.44-10.1-8.62-10.87-.83-3.66,2.52-5.77,5.29-3.64.71.55.84,1.54,1.66,1.86V2.28c0-.6,1.56-1.84,2.07-2.28h2.48Z"/>
        <path class="cls-1" d="M117.09,116.04c-7.14,0-13.72-3.52-18.19-8.43-7.95-8.75-10.26-23.22.73-33.94h0c6.75-6.58,15.04-8.8,23.36-6.25,8.89,2.73,16.13,10.72,18.01,19.87,1.73,8.44-1.33,16.7-8.38,22.67-5.09,4.31-10.46,6.09-15.53,6.09ZM105.22,79.39c-5.58,5.44-7.87,14.61-.4,22.83,5.31,5.84,14.37,8.61,22.63,1.62,6.18-5.23,6.52-11.02,5.71-14.95-1.29-6.28-6.43-11.96-12.52-13.83-3.81-1.17-9.58-1.37-15.43,4.33h0Z"/>
        <path class="cls-1" d="M111.72,50.35c23.29-2.26,44.5,14.02,46.07,37.85.21,3.19.9,11.51-3.91,11.02-4.39-.45-2.49-7.77-2.73-10.99-3.1-41.43-65.64-41.43-68.74,0-.24,3.22,1.66,10.55-2.73,10.99-5.68.58-3.91-11.63-3.36-15.03,2.78-17.22,17.92-32.13,35.41-33.83Z"/>
        <path class="cls-1" d="M37.3,126.38c-5.65,0-10.71-2.28-14.31-6.57-4.99-5.95-6.35-14.77-3.41-21.95,2.74-6.67,8.77-10.91,16.57-11.64h0c12.04-1.14,19.78,7.69,21.23,17,1.4,9-2.78,19.92-15.25,22.64-1.64.36-3.26.53-4.83.53ZM38.21,94.12c-.42,0-.86.02-1.31.06h0c-6.15.58-8.79,3.97-9.92,6.72-1.82,4.44-.94,10.1,2.14,13.77,1.88,2.25,5.37,4.65,11.3,3.36,7.46-1.62,9.92-7.99,9.05-13.59-.82-5.28-4.6-10.33-11.26-10.33Z"/>
        <path class="cls-1" d="M195.07,126.43c-4.95,0-9.45-1.82-12.95-5.36-5.64-5.7-7.65-14.99-4.88-22.6,2.55-7.03,8.66-11.5,16.76-12.26h0c11.88-1.12,19.28,7.41,21.12,15.81,1.83,8.35-1.27,19.13-12.42,23.04-2.6.91-5.17,1.36-7.63,1.36ZM194.74,94.18c-6.36.6-8.94,4.15-9.99,7.03-1.72,4.73-.43,10.72,3.05,14.24,3.06,3.09,7.29,3.81,12.24,2.07,7.04-2.47,8.31-8.97,7.26-13.78-1.07-4.86-4.97-10.27-12.56-9.56h0Z"/>
        <path class="cls-1" d="M166.89,49.81c5.31-1.33,7.62,5.14,2.17,6.54-2.36.61-8.56,1.26-11.1,1.36-1.72.07-3.4-.53-3.82-2.38-.34-1.48.74-11.33,1.19-13.16.8-3.23,5.45-3.73,6.4-.68.36,1.15-.03,2.3.39,3.34l17.21-17.21c2.97-1.92,5.94.29,5.27,3.61l-17.71,18.57Z"/>
        <path class="cls-1" d="M71.63,44.83c-1.62-5.33,5.38-7.57,6.59-2.66.46,1.86,1.51,11.19,1.26,12.81-.29,1.82-1.71,2.76-3.49,2.76-2.29,0-9.3-.82-11.49-1.39-2.64-.68-4.2-3.09-2.32-5.44,1.3-1.63,2.78-.81,4.49-1.3l-16.55-16.62c-2.64-2.63-.9-6.83,3.01-5.92,3.11.73,14.65,15.43,18.51,17.76Z"/>
      </g>
    </g>
  </g>
</svg>