<?xml version="1.0" encoding="UTF-8"?>
<svg id="Layer_2" data-name="Layer 2" xmlns="http://www.w3.org/2000/svg" viewBox="0 0 177.01 125.9">
  <defs>
    <style>
      .cls-1 {
        fill: #ffd586;
      }
    </style>
  </defs>
  <g id="Layer_1-2" data-name="Layer 1">
    <g id="yNDjaN.tif">
      <g>
        <path class="cls-1" d="M123.79,125.9H53.48l-.26-2.75c-1.25-13.41,5.46-26.52,17.1-33.39,11.77-6.95,25.68-6.79,37.2.43,11.43,7.16,17.6,19.47,16.49,32.93l-.23,2.79ZM59.15,119.83h58.92c-.08-10.05-5.09-19.06-13.77-24.5-9.57-5.99-21.11-6.12-30.89-.35-8.82,5.21-14.22,14.75-14.26,24.85Z"/>
        <path class="cls-1" d="M46.15,125.9H0l.25-3.27c.05-.64.02-1.39-.02-2.19-.05-1.06-.09-2.15.03-3.26.1-.91.42-2.04.83-3.42.08-.26.15-.5.21-.71,2.77-9.84,10.38-17.23,20.34-19.77,9.97-2.55,20.2.29,27.35,7.6l1.51,1.54-.95,1.93c-2.93,5.93-4.12,11.91-3.63,18.28l.25,3.26ZM6.28,119.83h33.44c0-5.55,1.13-10.86,3.41-16.1-5.5-4.68-12.83-6.39-20-4.56-7.84,2-13.82,7.81-16,15.54-.06.23-.14.5-.23.79-.2.66-.56,1.9-.61,2.34-.06.57-.04,1.26-.01,2Z"/>
        <path class="cls-1" d="M177.01,125.9h-45.91l.25-3.26c.48-6.37-.71-12.35-3.63-18.28l-.95-1.93,1.51-1.54c7.75-7.88,19.07-10.53,29.54-6.9,10.61,3.68,17.96,12.87,19.18,23.98l.02.33v7.6ZM137.52,119.83h33.41v-1.36c-1.01-8.69-6.79-15.86-15.11-18.75-7.7-2.67-15.67-1.16-21.71,4,2.28,5.24,3.4,10.55,3.41,16.1Z"/>
        <path class="cls-1" d="M89.56,0c.38.33,1.57,1.28,1.57,1.73v19.37c.62-.25.72-1,1.26-1.41,2.11-1.62,4.65-.01,4.02,2.76-.13.59-6.04,8.04-6.54,8.25-.69.29-1.81.29-2.5,0-.5-.21-6.41-7.66-6.54-8.25-.63-2.78,1.91-4.38,4.02-2.76.54.42.64,1.17,1.26,1.41V1.73c0-.45,1.19-1.4,1.57-1.73h1.89Z"/>
        <path class="cls-1" d="M88.86,88.06c-5.42,0-10.41-2.67-13.8-6.4-6.04-6.64-7.78-17.62.56-25.76h0c5.12-5,11.42-6.68,17.73-4.74,6.75,2.07,12.24,8.13,13.67,15.08,1.31,6.4-1.01,12.67-6.36,17.2-3.87,3.27-7.94,4.62-11.79,4.62ZM79.85,60.25c-4.23,4.13-5.97,11.09-.3,17.33,4.03,4.43,10.9,6.54,17.17,1.23,4.69-3.97,4.95-8.36,4.34-11.35-.98-4.76-4.88-9.08-9.5-10.5-2.89-.89-7.27-1.04-11.71,3.29h0Z"/>
        <path class="cls-1" d="M84.79,38.21c17.68-1.72,33.77,10.64,34.96,28.72.16,2.42.68,8.73-2.97,8.36-3.34-.34-1.89-5.9-2.08-8.34-2.35-31.44-49.81-31.44-52.16,0-.18,2.44,1.26,8-2.08,8.34-4.31.44-2.97-8.83-2.55-11.41,2.11-13.07,13.6-24.38,26.87-25.68Z"/>
        <path class="cls-1" d="M28.31,95.91c-4.29,0-8.13-1.73-10.86-4.99-3.78-4.51-4.82-11.21-2.58-16.66,2.08-5.06,6.66-8.28,12.57-8.84h0c9.14-.86,15.01,5.84,16.11,12.9,1.06,6.83-2.11,15.12-11.57,17.18-1.25.27-2.47.4-3.66.4ZM29,71.43c-.32,0-.65.02-.99.05h0c-4.67.44-6.67,3.01-7.52,5.1-1.38,3.37-.72,7.66,1.62,10.45,1.43,1.7,4.08,3.53,8.58,2.55,5.66-1.23,7.53-6.07,6.87-10.31-.62-4.01-3.49-7.84-8.55-7.84Z"/>
        <path class="cls-1" d="M148.04,95.95c-3.75,0-7.17-1.38-9.83-4.07-4.28-4.32-5.8-11.38-3.71-17.15,1.94-5.33,6.57-8.72,12.72-9.3h0c9.01-.85,14.63,5.62,16.03,12,1.39,6.34-.97,14.52-9.43,17.49-1.98.69-3.92,1.04-5.79,1.04ZM147.79,71.47c-4.83.46-6.79,3.15-7.58,5.33-1.3,3.59-.33,8.13,2.31,10.81,2.32,2.35,5.53,2.89,9.29,1.57,5.34-1.88,6.31-6.81,5.51-10.46-.81-3.68-3.77-7.8-9.53-7.25h0Z"/>
        <path class="cls-1" d="M126.65,37.8c4.03-1.01,5.78,3.9,1.65,4.97-1.79.46-6.49.96-8.42,1.03-1.31.05-2.58-.4-2.9-1.81-.26-1.12.56-8.6.9-9.99.61-2.45,4.14-2.83,4.86-.52.27.87-.03,1.75.3,2.54l13.06-13.06c2.25-1.46,4.51.22,4,2.74l-13.44,14.1Z"/>
        <path class="cls-1" d="M54.36,34.02c-1.23-4.04,4.08-5.75,5-2.02.35,1.41,1.15,8.49.95,9.72-.22,1.38-1.3,2.1-2.65,2.09-1.73,0-7.06-.63-8.72-1.05-2-.51-3.19-2.35-1.76-4.13.99-1.24,2.11-.62,3.41-.99l-12.56-12.61c-2-1.99-.68-5.18,2.28-4.49,2.36.55,11.12,11.71,14.05,13.48Z"/>
      </g>
    </g>
  </g>
</svg>