<?xml version="1.0" encoding="UTF-8"?>
<svg id="Layer_2" data-name="Layer 2" xmlns="http://www.w3.org/2000/svg" viewBox="0 0 180.67 184.14">
  <defs>
    <style>
      .cls-1 {
        fill: #4f46e5;
      }
    </style>
  </defs>
  <g id="Layer_1-2" data-name="Layer 1">
    <g id="_3eiFmp.tif" data-name="3eiFmp.tif">
      <g>
        <path class="cls-1" d="M73.39,0v15.38h10.19c.45,0,2.11,1.66,2.11,2.11v10.19h11.72c.8,0,1.96,1.66,2.09,2.52.48,3.09-.69,15.84.38,17.31l38.22,20.59c.41.2,1.4,1.38,1.4,1.67v13.26h25.56c.88,0,2.48,2.2,2.13,3.25l-.04,86.08,13.51,6.23-2.55,5.55c-7.81-3.74-15.61-7.67-23.99-10.02l1.53-6.14,5.38,1.92v-80.72h-21.53v46.13h-6.15v-62.47l-33.83-18.26v19.22h-6.15v-39.98h-46.13v127.62c18.16-3.64,36.79-5.6,55.35-4.23v6.15c-30.55-2-61.46,3.6-89.44,15.69-3.62,1.57-7.1,3.43-10.68,5.08l-2.49-5.75,13.45-6.03.15-68.98.79-1.13,26.63-21.03.07-50.67c-.23-.94,1.39-2.87,2.12-2.87h11.72v-10.19c0-.45,1.66-2.11,2.11-2.11h10.19V0h6.15ZM79.54,21.53h-18.45v6.15h18.45v-6.15ZM19.58,169.91l21.53-7.11v-73.23l-21.53,16.72v63.62Z"/>
        <path class="cls-1" d="M117.22,143.38c2.11-1.26,4.06-4.15,6.53-1.74l23.64,30.17c.79,2-.46,2.84-1.73,4.05-1.4,1.33-7.63,6.4-9.1,7.05-1.8.78-3.19.78-4.35-.91l-22.63-28.88c-1.5-3.47.78-4.1,3.01-6.09l-3.83-4.62c-9.82,5.66-20.78,6.95-31.4,2.58-28.39-11.68-26.9-53.24,2.2-62.9,34.24-11.36,59.48,31.14,34.25,56.16l3.41,5.13ZM87.54,86.22c-35.46,3.23-31.34,57.87,4.88,55.23,36.22-2.63,32.35-58.62-4.88-55.23ZM140.28,172.59l-18.63-23.86c-1.22-.86-3.91,2.42-5.04,3.11l18.67,24.05,5-3.3Z"/>
        <path class="cls-1" d="M93.38,95.33l.04,3.04c5.05.48,8.99,4.07,9.19,9.26h-6.15c-.24,0-.22-2.73-3.26-3.08s-11.03-.74-8.75,4.53c1.16,2.67,6.96,1.38,9.51,1.64,11.62,1.17,11.24,17.7-.53,18.48l-.04,3.04h-6.15l-.04-3.04c-5.05-.48-8.99-4.07-9.19-9.26h6.15c.24,0,.22,2.73,3.26,3.08s11.03.74,8.75-4.53c-1.16-2.67-6.96-1.38-9.51-1.64-11.62-1.17-11.24-17.7.53-18.48l.04-3.04h6.15Z"/>
      </g>
    </g>
  </g>
</svg>