<?xml version="1.0" encoding="UTF-8"?>
<svg id="Layer_2" data-name="Layer 2" xmlns="http://www.w3.org/2000/svg" viewBox="0 0 195.11 172.69">
  <defs>
    <style>
      .cls-1 {
        fill: #4f46e5;
      }
    </style>
  </defs>
  <g id="Layer_1-2" data-name="Layer 1">
    <g>
      <path class="cls-1" d="M92.19,37.98c43.84-3.87,70.79,45.49,42.79,79.47-24.79,30.09-73.97,19.38-84.2-18.07-7.73-28.28,11.81-58.79,41.41-61.4ZM92.86,44.71c-27.73,2.46-44.59,32.99-33.64,58.34,10.88,25.19,43.96,33.45,65.16,15.58,31.71-26.73,10.34-77.63-31.52-73.92Z"/>
      <path class="cls-1" d="M119.85,71.53c.59.51.56-.16.7-.47.91-2.01.64-4.36,3.41-5.03,2.91-.7,4.39,1.89,3.88,4.58-.35,1.84-3.4,10.12-4.34,11.81-.99,1.81-2.29,2.14-4.27,1.66-2.58-.63-8.42-2.78-10.92-3.89-1.09-.48-2.23-.85-2.53-2.18-.69-3.01,1.13-4.82,4.1-4.44,1.46.18,2.75,1.49,4.23,1.15-8.77-11.95-26.22-10.76-33.7,1.96-1.28,2.17-2,6.17-5.79,4.22-3.53-1.81-.91-6.07.53-8.47,9.5-15.88,31.02-16.81,43.18-3.27.45.5,1.41,2.27,1.52,2.36Z"/>
      <path class="cls-1" d="M81.15,97.78c8.52,12.19,26.21,10.92,33.71-1.79,1.25-2.12,1.75-5.91,5.57-4.35,4.39,1.79.1,8.19-1.65,10.62-10.21,14.18-30.44,13.95-41.84,1.24-.45-.5-1.41-2.27-1.52-2.36-.59-.5-.56.16-.7.47-.4.89-.52,2.07-1.02,3.02-1.98,3.78-7.19,2.23-6.27-2.57.27-1.42,3.84-11.22,4.55-12.27.82-1.21,2.12-1.56,3.53-1.36,1.82.26,9.46,3.16,11.45,4.04,2.39,1.06,3.81,3.06,1.94,5.48-2.37,3.07-7.02-.75-7.74-.17Z"/>
      <path class="cls-1" d="M182.01,73.28c-.95,0-1.95.08-2.97.23l-.47.07-.24-.41-28.99-49.76-.23-.4.28-.37c3.88-5.11,4.75-10.49,2.45-15.13C149.62,3.04,144.7.03,139.61.03c-5.58,0-10.23,3.55-12.75,9.75l-.16.41-.44.03c-.61.04-1.27.06-2.01.06-1.16,0-2.36-.05-3.53-.1-1.15-.05-2.33-.1-3.46-.1-.93,0-1.73.03-2.46.1-2.13.19-2.95,1.59-3.01,2.83-.06,1.38.79,3.04,2.79,3.4.8.14,1.74.21,2.87.21,1.02,0,2.09-.05,3.14-.11,1.06-.05,2.16-.11,3.22-.11.95,0,1.77.05,2.51.14l.3.04.18.24c.5.69.85,1.4,1.19,2.08.36.72.69,1.39,1.19,2.05,2.23,2.97,5.76,5.04,9.19,5.41.37.04.73.06,1.12.06.57,0,1.1-.04,1.66-.08.57-.04,1.15-.09,1.79-.09.15,0,.31,0,.46,0h.39s.19.35.19.35l28.73,49.58.26.45-.35.38c-4.87,5.22-4.87,13.41,0,18.63l.35.38-.26.45-28.73,49.58-.18.32-.37.03c-.23.02-.45.03-.69.03-.6,0-1.16-.06-1.71-.11-.55-.06-1.08-.11-1.65-.11-.24,0-.47,0-.71.03-3.43.29-7.09,2.36-9.34,5.26-.3.39-.67,1.1-1.04,1.79-.88,1.69-1.47,2.73-2.27,2.88h-.07s-.07.01-.07.01l-56.81-.06h-.36s-.21-.29-.21-.29c-.5-.69-.85-1.4-1.19-2.08-.36-.72-.69-1.39-1.19-2.05-2.5-3.32-6.64-5.5-10.55-5.55h0c-.4,0-.87.08-1.32.16-.51.09-1.03.18-1.51.18-.64,0-1.12-.16-1.48-.5l-.08-.07-.05-.09-28.44-49.19-.24-.42.3-.37c4.79-5.88,4.76-13.63-.07-18.86l-.35-.38.26-.45,28.54-49.38.05-.09.08-.07c.36-.34.85-.5,1.49-.5.49,0,1.01.09,1.51.18.45.08.92.16,1.29.16,3.95-.05,8.09-2.23,10.58-5.55.5-.66.83-1.34,1.19-2.05.34-.68.69-1.39,1.19-2.08l.16-.22.27-.05c.51-.1,1.14-.15,1.99-.15.83,0,1.76.04,2.74.09,1.09.05,2.21.1,3.31.1,1.93,0,4.63-.14,5.85-1.39.49-.5.72-1.16.69-2.03-.06-2.21-1.76-3.15-5.69-3.15-1.18,0-2.43.08-3.64.16-1.14.07-2.22.14-3.19.14s-1.7-.07-2.29-.22l-.35-.09-.13-.33c-2.38-6.16-6.93-9.69-12.47-9.69-5.19,0-10.17,3.07-12.4,7.64-2.23,4.58-1.33,9.81,2.53,14.74l.29.37-.24.41-29,50.02-.26.45-.51-.12c-1.07-.26-2.14-.39-3.19-.39-6.07,0-11.29,4.42-13.02,11v4.43c1.73,6.59,6.95,11,13.01,11,1.05,0,2.12-.13,3.19-.39l.51-.12.26.45,28.99,49.76.22.38-.25.36c-1.85,2.69-3.4,5.15-3.67,8.05-.46,4.98,1.51,8.3,3.25,10.21,2.51,2.76,6.27,4.4,10.06,4.4,4.71,0,8.83-2.47,11.33-6.76.15-.26.28-.61.43-1,.37-.98.83-2.21,1.95-2.42h.07s.07-.01.07-.01l56.99.07h.47s.17.44.17.44c2.44,6.17,7.01,9.71,12.53,9.71,5.11,0,10.04-3.05,12.28-7.58,2.3-4.66,1.42-10.02-2.47-15.08l-.29-.37.24-.4,28.99-49.76.24-.41.47.07c1.01.15,2,.23,2.95.23,4.07,0,7.47-1.41,9.85-4.06,2.11-2.36,3.28-5.56,3.28-8.99,0-6.28-4.1-13.04-13.1-13.04ZM143.05,19.3c-1.24.61-2.44.92-3.59.92-3.94,0-6.33-3.65-6.37-7.18-.05-4.58,3.32-6.7,6.68-6.78.06,0,.11,0,.17,0,3.74,0,6.04,2.71,6.67,5.39.75,3.21-.64,6.22-3.55,7.65ZM55.83,5.69c4.05,0,7.33,3.28,7.33,7.33s-3.28,7.33-7.33,7.33-7.33-3.28-7.33-7.33,3.28-7.33,7.33-7.33ZM13.24,93.66c-4.05,0-7.33-3.28-7.33-7.33s3.28-7.33,7.33-7.33,7.33,3.28,7.33,7.33-3.28,7.33-7.33,7.33ZM55.54,166.41c-.06,0-.12,0-.18,0-4.3,0-6.53-3.31-6.77-6.39-.25-3.1,1.47-6.75,5.83-7.45.43-.07.86-.1,1.27-.1,3.22,0,6.5,2.4,6.55,6.99.04,3.28-2.04,6.85-6.7,6.95ZM140.05,166.41h-.17c-4.45,0-6.67-3.41-6.84-6.58-.24-4.52,2.91-6.93,5.93-7.25.33-.04.65-.05.96-.05,4.39,0,6.71,3.47,6.75,6.9.05,4.71-3.41,6.93-6.64,6.99ZM188.88,87.71c-.87,3.23-3.85,5.67-6.91,5.67-1.69,0-3.33-.72-4.76-2.07-2.04-1.94-2.62-4.69-1.55-7.37,1.1-2.74,3.67-4.59,6.41-4.59,1.23,0,2.46.35,3.65,1.05,2.77,1.62,3.95,4.35,3.15,7.3Z"/>
      <circle class="cls-1" cx="98.42" cy="13.72" r="3.14"/>
    </g>
  </g>
</svg>