<?xml version="1.0" encoding="UTF-8"?>
<svg id="Layer_2" data-name="Layer 2" xmlns="http://www.w3.org/2000/svg" viewBox="0 0 168.64 196.44">
  <defs>
    <style>
      .cls-1 {
        fill: #4f46e5;
      }
    </style>
  </defs>
  <g id="Layer_1-2" data-name="Layer 1">
    <g id="_4kP90V.tif" data-name="4kP90V.tif">
      <g>
        <path class="cls-1" d="M168.64,122.25c-1.07,1.74-2.59,1.77-4.48,1.63l-.21,71.31-1.02,1.02-156.24.23c-1.21-.04-2.2-1.02-2.24-2.24l.02-70.32c-2.09.32-4.91-.27-4.42-2.96.08-.46,1.08-1.93,1.36-1.93h47.05v-30.56c-3.83.85-9.04-1.21-4.5-4.71l80.98.13c4.02,3.81-1.2,5.28-4.78,4.58v30.56l47.26.2,1.22,1.43v1.63ZM115.28,88.43h-61.92v103.1h17.52v-23.02c0-1.18,2.09-1.73,3.06-1.83,5.08-.53,14.77-.38,19.98-.02,1.09.08,3.85.33,3.85,1.85v23.02h17.52v-103.1ZM48.47,123.88H9.36v67.65h39.11v-67.65ZM159.27,123.88h-39.11v67.65h39.11v-67.65ZM92.87,171.56h-17.11v19.97h17.11v-19.97Z"/>
        <path class="cls-1" d="M152.76,0c.67.59,1.24.93,1.72,1.75,3.53,6.12,8.24,17.3,10.98,24.06,1.59,3.92,3.34,5.42-1.61,7.09-8.74,2.94-18.88,4.15-27.77,6.86-5.89,6.64-10.41,15.57-16.14,22.16-4.8,5.53-13.29,3.62-19.85,3.27-12.46,15.54-36.8,5.79-36.13-13.83-7.56.42-12.4-7.15-8.15-13.65l28.1-28.12c1.32-1.12,2.97-1.69,4.68-1.84,11.14-1,23.71.81,35.01-.03l27.13-7.7h2.04ZM150.7,5.3l-12.61,3.26,10.37,23.11,12.85-3.15-10.61-23.22ZM143.39,33l-10.43-22.75c-.8-.19-7.18,2.2-8.92,2.38-11.05,1.2-24.15-.92-35.42.02l-1.86.99-26.69,26.68c-2.7,3.3,1.08,7.57,4.67,5.48,4.91-3.84,9.45-10.64,14.28-14.24.59-.44,1.06-.95,1.87-1l29.9,3.86c3.49,1.11,5.99,4.86,5.72,8.55-.12,1.64-4.44,11.27-5.55,11.99-1.98,1.27-7.62-.18-10.06.53-1.73.51-2.39,3.12-.92,4.42,1.27,1.13,10.51,1,12.6.75,1.75-.21,2.35-.54,3.5-1.8,5.85-6.44,10.71-16.09,16.43-22.88l10.87-2.99ZM83.42,37.2c-1.22.09-3.16.44-4.2,1.1-.92.59-8.29,7.97-8.98,8.95-2.58,3.7-1.11,10,1.11,13.6,3.83,6.22,11.74,8.57,18.54,6.06,1.22-.45,4.77-2.53,5.45-3.52.95-1.37-.35-1.62-.65-2.67-.89-3.08-.46-5.96,2.03-8.17,2.44-2.17,3.5-.96,2.04-5.28-2.1-6.21-8.87-10.54-15.35-10.08ZM104.28,50.53c1.18-.14,2.97.4,3.88-.4.3-.27,3.17-6.28,3.29-6.92,1.17-6.15-9.6-4.3-13.28-5.71,3.13,3.65,6.13,8.01,6.11,13.04Z"/>
        <path class="cls-1" d="M77.25,111.92c-2.56,2.56-11.04,2.47-13.53-.25-2.12-2.32-2.07-10.71.06-13.02,2-2.17,7.69-2.03,10.52-1.63,5.88.83,6.08,11.77,2.95,14.9ZM67.21,108.4c0,.33,5.91.92,6.56-.16.61-.78.73-5.45-.24-6.36h-6.31v6.52Z"/>
        <path class="cls-1" d="M67.52,140.7c5.03-.77,10.85-.26,11.5,5.8.5,4.6.2,10.27-5.48,10.82-4.83.47-10.68.49-11.24-5.51-.44-4.72-.54-10.23,5.21-11.12ZM74.13,145.89c-1.18-.42-6.2-.82-6.75-.03l.2,6.37c.53.37,5.88.5,6.54-.43v-5.91Z"/>
        <path class="cls-1" d="M91.38,111.92c-2.56-2.56-2.59-10.78.05-13.33,2.48-2.4,11.1-2.47,13.42.06,2.13,2.31,2.18,10.7.06,13.02-2.48,2.72-10.97,2.81-13.53.25ZM101.43,101.88h-6.31c-.97.91-.86,5.58-.24,6.36,1.77,1.11,4.57.61,6.56.16v-6.52Z"/>
        <path class="cls-1" d="M94.8,140.69c4.65-.79,10.9-.33,11.51,5.4.47,4.35.43,10.58-5.09,11.21-4.87.56-10.93.55-11.61-5.5-.5-4.46-.2-10.19,5.19-11.11ZM94.5,145.89v5.91c.66.93,6.01.81,6.54.43l.2-6.37c-.55-.79-5.57-.4-6.75.03Z"/>
        <path class="cls-1" d="M68.34,118.7c4.75-.6,10.05.15,10.68,5.79.36,3.24.21,9.43-3.65,10.62-1.2.37-7.82.38-9.1.1-2.71-.6-3.78-3.37-3.97-5.81-.44-5.5-.28-9.9,6.04-10.7ZM67.21,130.4h6.31c.97-.91.86-5.58.24-6.36-1.77-1.11-4.57-.61-6.56-.16v6.52Z"/>
        <path class="cls-1" d="M95.64,118.7c4.87-.62,10.15.01,10.7,5.78.33,3.48.47,9.41-3.66,10.63-1.26.37-7.78.4-9.1.1-2.08-.47-3.73-3.4-3.96-5.41-.59-5.26-.04-10.31,6.02-11.09ZM101.43,123.88c0-.33-5.91-.92-6.56.16-.61.78-.73,5.45.24,6.36h6.31v-6.52Z"/>
        <path class="cls-1" d="M19.42,158.6c5.53.4,12.52-.8,17.87-.1.96.13,1.47.43,2.01,1.25v24.84l-1.02,1.02c-5.52-.17-12.8.95-18.14.23-1.56-.21-2.05-1.13-2.23-2.66-.54-4.61-.54-17.41,0-22.02.12-1.07.47-2.08,1.51-2.56ZM34.62,163.41h-11.81v17.52h11.81v-17.52Z"/>
        <path class="cls-1" d="M19.02,130.48c5.8.41,13.06-.82,18.68-.1,1.37.18,2.07.89,2.24,2.24.46,3.62.36,13.42,0,17.16-.18,1.9-.69,2.46-2.65,2.65-3.78.36-13.94.48-17.56,0-1.56-.21-2.05-1.14-2.23-2.66-.43-3.76-.36-12.49-.01-16.33.11-1.23.27-2.36,1.52-2.96ZM35.03,135.29h-12.63v12.23h12.63v-12.23Z"/>
        <path class="cls-1" d="M130.64,158.2c5.51.39,12.54-.82,17.86-.11,1.56.21,2.05,1.13,2.23,2.66.57,4.9.47,16.61.01,21.63-.11,1.16-.22,2.09-1.24,2.83-5.55-.18-12.78.93-18.15.22-.96-.13-1.47-.43-2.01-1.25l-.23-23.85,1.53-2.13ZM145.83,163h-11.81v17.52h11.81v-17.52Z"/>
        <path class="cls-1" d="M129.24,130.51c.39-.42,1.9-.86,2.53-.93,2.61-.29,15.23-.35,17.26.28,1.44.45,1.94,1.31,2.11,2.78.43,3.76.36,12.49.01,16.33-.15,1.64-.41,2.81-2.24,3.06-3.28.44-14.66.42-17.97,0-1.69-.22-2.1-1.09-2.24-2.64-.4-4.19-.35-12.52,0-16.75.06-.67.05-1.61.53-2.12ZM146.24,147.11v-12.02l-.61-.61h-12.02v12.63h12.63Z"/>
        <path class="cls-1" d="M86.84,42.31c.14.22,3.1,1.56,3.95,3.18,1.1,2.1-.05,4.64-2.5,4.17-1.95-.38-2.42-4.51-5.61-2.19l-.43,1.59c4.61,2.14,10.96,2.9,8.6,9.85-.91,2.68-3.39,3.02-3.89,3.85-.67,1.11.06,3.84-2.82,3.66-2.7-.17-1.84-2.8-2.34-3.59-.12-.19-1.11-.34-1.54-.7-1.63-1.35-4.61-4.44-1.81-6.26,2.78-1.81,3.38,1.61,4.65,2.2,1.56.73,3.79-.27,3.21-2.2-4.88-1.44-10.74-3.13-8.53-9.63.91-2.68,3.39-3.03,3.89-3.85.68-1.12-.06-3.84,2.82-3.66,2.7.17,1.83,2.79,2.34,3.59Z"/>
      </g>
    </g>
  </g>
</svg>