<?xml version="1.0" encoding="UTF-8"?>
<svg id="Layer_2" data-name="Layer 2" xmlns="http://www.w3.org/2000/svg" viewBox="0 0 195.13 195.5">
  <defs>
    <style>
      .cls-1 {
        fill: #4f46e5;
      }
    </style>
  </defs>
  <g id="Layer_1-2" data-name="Layer 1">
    <g>
      <path class="cls-1" d="M20.53,133.62c1.86.4,2.22,3.2,2.48,3.28,11.92-.56,23.74.65,34.93,4.84,4.07,1.53,8.3,4.38,12.64,4.84,8.74.92,18.82-.72,27.61.04,6.74.58,11.2,5.9,10.76,12.62l22.44-9.47c14.6-3.1,20.7,15.67,8.2,22.43-17.12,5.94-34.04,13.82-51.16,19.57-7.51,2.52-15.21,4.1-23.2,3.67-14.98-.81-28.53-9.09-42.27-14.24.09,1.28-.87,4.47-2.43,4.47H0v-6.5h16.26v-39.03H0v-6.5h20.53ZM58.54,162.89h40.04c.71,0,2.62-1.58,3.05-2.23,1.91-2.96.28-6.3-2.82-7.35-9.31-.89-19.42.62-28.64-.23-5.46-.5-9.69-3.4-14.68-5.24-10.64-3.91-21.42-4.94-32.73-4.46v30.9c16.31,5.54,31.02,15.8,48.98,14.63,5.32-.35,10.46-1.94,15.46-3.65,16.81-5.73,33.46-13.23,50.17-19.34,4.86-3.46,2.06-10.7-3.84-9.95-9.75,3.12-19.33,8.96-28.95,12.11-.89.29-4.14,1.32-4.78,1.32h-41.26v-6.5Z"/>
      <path class="cls-1" d="M133.34,117.36v-6.5h35.98c.56,0,4-1.03,4.79-1.31,13.02-4.7,18.49-20.42,11.34-32.3l-21.29-34.6-28.9-.09-15.32,24.63-5.69-3.28,15.83-25.63-.08-10.86c-1.36-3.29-8.92-10.37-9.57-13.19-.9-3.91,1.95-9.12,5.07-11.43,8.68-6.45,15.89-.19,23.98,3.5,7-2.63,12.61-8.3,20.58-5.51,4.95,1.74,9.65,7.67,8.81,13.1-.43,2.77-8.26,10.32-9.64,13.54l-.08,10.86,23.5,38.7c6.67,14.69-.54,32.66-15.58,38.37-1.53.58-5.92,2.02-7.33,2.02h-36.38ZM132.84,6.46c-2.24.27-6.28,3.34-5.9,5.75.1.62,6.67,9.38,7.4,10.05.38.35.66.76,1.25.78l28.36-.07c.65-.19,8.21-10.08,8.32-10.76.2-1.28-1.71-3.71-2.73-4.42-2.34-1.64-4.23-1.59-6.8-.67-3.01,1.08-10.52,6.1-12.94,6.2-3.81.16-12.22-7.43-16.96-6.86ZM162.61,29.55h-26.02v6.5h26.02v-6.5Z"/>
      <path class="cls-1" d="M126.84,146.63h-6.5v-68.3H48.78v52.04h-6.5v-56.3c0-.77,2.04-2.49,3.04-2.24h78.08c1.11-.38,3.44,1.31,3.44,2.24v72.56Z"/>
      <path class="cls-1" d="M87.81,101.1h10.77c.48,0,2.24,1.76,2.24,2.24v10.77h6.5v6.5h-45.53v-6.5h6.5v-23.78c0-1.34,2.27-2.15,3.44-2.26,2.89-.26,10.7-.38,13.41.04.91.14,2.67,1.36,2.67,2.21v10.77ZM81.31,94.6h-6.5v19.51h6.5v-19.51ZM94.31,107.6h-6.5v6.5h6.5v-6.5Z"/>
      <path class="cls-1" d="M112.89,10.57c.33.3.87,1.3.93,1.74l-6.09,20.09-6.44-2.23c-.11-1.13,3.32-8.44,3.6-10.59.08-.62.04-.7-.61-.6-1.43.21-6.4,3.33-7.89,4.31-10.7,7.03-19.94,18.05-24.03,30.25l-6.09-2.04c5.5-17.03,18.94-30.18,34.55-38.42l-9.76-3.05,2.02-5.92,19.81,6.46Z"/>
      <path class="cls-1" d="M152.85,58.82l.05,3.4c3.82,1.89,6.64,5.12,6.45,9.61h-6.5c.21-5.14-8.17-3.8-6.2.71.85,1.95,7.93,3.98,10.07,6.19,3.85,3.97,3.37,10.71-1.06,14.01-2.37,1.77-3.39.71-2.82,5.11h-6.5l-.05-3.4c-3.83-1.94-6.7-5.04-6.45-9.61h6.5c-.19,5.16,8.16,3.78,6.2-.71-.84-1.93-7.76-3.94-9.87-5.98-3.89-3.76-3.74-10.02.21-13.64,2.37-2.18,4.24-1.17,3.46-5.68h6.5Z"/>
      <rect class="cls-1" x="71.55" y="130.37" width="39.03" height="6.5"/>
      <path class="cls-1" d="M165.45,126.7c-2.83,1.81-5.33,4.04-8.16,5.87-6.91,4.45-15.37,8.18-23.54,9.18.36-1.41-1.59-5.5-.42-6.32,10.36-2.05,19.97-7.08,27.86-13.99l4.27,5.26Z"/>
      <polygon class="cls-1" points="70.33 59.64 69.1 65.73 62.6 64.92 63.83 58.01 70.33 59.64"/>
      <rect class="cls-1" x="165.86" y="75.08" width="6.5" height="6.5"/>
      <rect class="cls-1" x="58.54" y="130.37" width="6.5" height="6.5"/>
    </g>
  </g>
</svg>