<?xml version="1.0" encoding="UTF-8"?>
<svg id="Layer_2" data-name="Layer 2" xmlns="http://www.w3.org/2000/svg" viewBox="0 0 180.6 180.6">
  <defs>
    <style>
      .cls-1 {
        fill: #4f46e5;
      }
    </style>
  </defs>
  <g id="Layer_1-2" data-name="Layer 1">
    <g id="dIu0n6.tif">
      <g>
        <path class="cls-1" d="M84.1,180.57c-3.12-.37-7.68-3.01-8.53-6.2-5.92,2.87-12.88-.39-14.74-6.58-6.77,1.59-12.88-4.06-12.94-10.88-8.32-1.66-11.69-9.56-7.26-16.78l-10.21-12.65c-1.78,2.98-5.5,4.28-8.88,3.84-2.33-.3-15.34-7.72-17.64-9.48-3.81-2.92-5.02-7.72-2.81-12.06,8.31-13.03,15.09-27.58,23.4-40.54,1.09-1.7,2.03-3.36,3.81-4.42l.16-62.9C28.93.5,31.02.1,32.35,0h115.51c1.3-.02,3.58.41,4.15,1.66l.28,63.18c1.78,1.06,2.72,2.72,3.81,4.42,8.31,12.95,15.08,27.51,23.4,40.54,1.64,3.35,1.5,6.85-.68,9.93-1.48,2.1-14.3,9.66-17.11,10.79-4.99,2-9.82.55-12.37-4.21l-6.7,3.17c1.68,5.01,1.52,8.81-1.97,12.94-.49.58-1.7.9-1.88,1.63s1.14,3.38,1.14,4.96c.02,5.89-5.33,11.11-11.24,10.69-.78,5.6-4.76,9.6-10.43,10.11-.67,6.55-6.12,11.6-12.87,9.82-2.33-.61-9.95-5.83-10.97-5.66-1.74,2.56-3.44,4.96-6.52,5.97-.4.13-2.36.63-2.64.65-.36.03-.81.04-1.16,0ZM146.1,6.22H34.5v57.34c1.06-.06,2.03.28,2.98.71,2.83,1.28,14.08,7.66,16.03,9.55.89.87,2.14,2.95,2.43,4.15.34,1.38,0,4.16.64,4.78l16.56,5.92c1.69-1.07,3.02-2.56,4.72-3.66,10.88-7.05,19.05-1.51,30.45-.9,5.41.29,10.8-.45,16.06-1.6-.23-3.16.39-6.41,2.74-8.69,1.88-1.83,13.26-8.3,16.03-9.55.95-.43,1.91-.77,2.98-.71V6.22ZM173.48,116.51c1.02-1.14,1.26-2.51.48-3.9l-24.74-42.29c-1.18-.93-2.17-1.08-3.5-.37l-14.17,8.31c-1.11,1.11-1.28,2.67-.52,4.05l24.36,41.9c.95.95,2.24,1.23,3.52.78l14.57-8.48ZM7.12,116.51l14.57,8.48c1.13.4,2.42.23,3.32-.59l24.56-42.08c.76-1.38.59-2.93-.52-4.05l-14.14-8.33-3.33.19L6.64,112.61c-.76,1.33-.56,2.81.48,3.9ZM146.1,120.89l-18.86-32.49c-8.13,1.6-15.62,2.41-23.91,1.46-5.09-.59-11.15-2.89-16.15-2.1-7.53,1.18-14.18,10.38-19.76,15.11l-.36.8c-.3,3.74-.27,7.48-.4,11.22-.04,1.22-1.19,5.87.25,6.35,4.64.16,6.79-2.49,8.87-6.14,1.29-2.27,2.64-6.91,4.47-8.32,4.47-3.43,15.07-6.31,20.14-2.74l36.32,21.07c1.81.36,7.32-3.61,9.4-4.21ZM68.21,93.4l-15.11-4.87-18.78,32.4v1.52s10.07,12.4,10.07,12.4l5.22-6.39c5.17-4.36,12.2-2.04,15.69,3.2,7.08-3.91,15.05,1.25,15.79,8.92,6.94,1.03,11.94,7.41,9.22,14.4,3.75,1.07,7.56,4.35,8.1,8.39.24,1.81-.21,3.44-.18,5.19.26.41,7.6,4.67,8.34,4.86,4.56,1.19,7.37-4.06,3.86-6.96-2.33-1.93-11.14-5.49-12.08-7.68-1.22-2.83,1.45-5.07,4.35-3.96,3.66,1.4,12.82,8.54,15.77,8.59s5.55-5.06,2.59-7.18l-14.1-8.37c-2.08-2.76.24-6.1,3.52-5.07l18.49,10.6c3,.58,5.72-3.18,4.31-5.88-1.59-3.05-14.83-8.54-18.03-11.23-2.26-2.89-.3-6.06,3.37-5.11,3.38.88,9.15,5.83,12.76,7.39,5.26,2.28,8.62-4.14,4.02-7.12-12.56-6.33-24.58-15.17-37.07-21.44-3.55-1.78-4.76-1.91-8.61-.73-.74.23-5.18,2.12-5.5,2.44-.75.76-1.79,4.21-2.48,5.46-1.67,3.03-3.42,6.07-6.42,7.92-5.76,3.57-14.21,3.97-15.19-4.42-.66-5.68,1.23-13.05.76-18.92-.42-1.71,7.77-7.79,7.34-8.35ZM54.53,132.61c-.56.17-1.92,1.73-2.37,2.28-.92,1.12-6.91,9.59-7.11,10.33-1.14,4.22,3.77,7.3,6.88,4.17l8.04-11.72c.86-3.17-2.39-5.97-5.45-5.06ZM70.05,136.48c-1.35.13-2.34,1.32-3.16,2.28-2.19,2.56-11.15,15.01-12.2,17.63-.77,1.93-.45,2.88,1.11,4.23,2.44,2.11,4.01,1.65,6.02-.59,2.31-2.57,10.94-14.66,12.27-17.56.79-1.73.93-2.51-.29-4.11-.79-1.04-2.42-2.01-3.76-1.88ZM79.73,146.93c-1.01.21-2.1,1.51-2.77,2.29-3.58,4.17-6.58,10-10,14.41-1.64,3.99,3.62,7.54,6.68,4.35l10.94-15.79c1.27-2.64-2.25-5.78-4.84-5.26ZM87.49,160.88c-.62.1-1.76.82-2.23,1.29-.67.66-4.39,6.26-4.56,7.06-.79,3.75,3.66,6.42,6.48,4.15.73-.59,4.78-6.53,4.97-7.43.57-2.73-1.99-5.52-4.66-5.08Z"/>
        <path class="cls-1" d="M84.68,51.44l11.12-.09c.9.47.81,5.75-.09,6.22h-10.71c-.81-.31-1.04-4.3-.33-6.13Z"/>
        <path class="cls-1" d="M84.94,18.13l10.68-.09c.92.05,1.17,5.69.17,6.21l-11.18-.21c-.61-1.92-.43-5.48.32-5.9Z"/>
        <path class="cls-1" d="M66.57,51.44l11.12-.09c.9.47.81,5.75-.09,6.22h-10.71c-.81-.31-1.04-4.3-.33-6.13Z"/>
        <path class="cls-1" d="M66.83,18.13l10.68-.09c.92.05,1.17,5.69.17,6.21l-11.18-.21c-.61-1.92-.43-5.48.32-5.9Z"/>
        <path class="cls-1" d="M47.87,51.44l11.12-.09c.9.47.81,5.75-.09,6.22h-10.71c-.81-.31-1.04-4.3-.33-6.13Z"/>
        <path class="cls-1" d="M48.13,18.13l10.68-.09c.92.05,1.17,5.69.17,6.21l-11.18-.21c-.61-1.92-.43-5.48.32-5.9Z"/>
        <path class="cls-1" d="M84.94,34.13l10.68-.09c.92.05,1.17,5.69.17,6.21l-11.18-.21c-.61-1.92-.43-5.48.32-5.9Z"/>
        <path class="cls-1" d="M66.83,34.13l10.68-.09c.92.05,1.17,5.69.17,6.21l-11.18-.21c-.61-1.92-.43-5.48.32-5.9Z"/>
        <path class="cls-1" d="M121.68,51.44l11.12-.09c.9.47.81,5.75-.09,6.22h-10.71c-.81-.31-1.04-4.3-.33-6.13Z"/>
        <path class="cls-1" d="M121.94,18.13l10.68-.09c.92.05,1.17,5.69.17,6.21l-11.18-.21c-.61-1.92-.43-5.48.32-5.9Z"/>
        <path class="cls-1" d="M103.57,51.44l11.12-.09c.9.47.81,5.75-.09,6.22h-10.71c-.81-.31-1.04-4.3-.33-6.13Z"/>
        <path class="cls-1" d="M84.68,67.44l11.12-.09c.9.47.81,5.75-.09,6.22h-10.71c-.81-.31-1.04-4.3-.33-6.13Z"/>
        <path class="cls-1" d="M66.57,67.44l11.12-.09c.9.47.81,5.75-.09,6.22h-10.71c-.81-.31-1.04-4.3-.33-6.13Z"/>
        <path class="cls-1" d="M103.57,67.44l11.12-.09c.9.47.81,5.75-.09,6.22h-10.71c-.81-.31-1.04-4.3-.33-6.13Z"/>
        <path class="cls-1" d="M103.83,18.13l10.68-.09c.92.05,1.17,5.69.17,6.21l-11.18-.21c-.61-1.92-.43-5.48.32-5.9Z"/>
        <path class="cls-1" d="M121.94,34.13l10.68-.09c.92.05,1.17,5.69.17,6.21l-11.18-.21c-.61-1.92-.43-5.48.32-5.9Z"/>
        <path class="cls-1" d="M103.83,34.13l10.68-.09c.92.05,1.17,5.69.17,6.21l-11.18-.21c-.61-1.92-.43-5.48.32-5.9Z"/>
        <path class="cls-1" d="M48.13,34.13l10.68-.09c.92.05,1.17,5.69.17,6.21l-11.18-.21c-.61-1.92-.43-5.48.32-5.9Z"/>
      </g>
    </g>
  </g>
</svg>