<?xml version="1.0" encoding="UTF-8"?>
<svg id="Layer_2" data-name="Layer 2" xmlns="http://www.w3.org/2000/svg" viewBox="0 0 201 201.05">
  <defs>
    <style>
      .cls-1 {
        fill: #4f46e5;
      }
    </style>
  </defs>
  <g id="Layer_1-2" data-name="Layer 1">
    <g>
      <path class="cls-1" d="M157.46,26.84v6.7h15.7c5.93,0,14.45,8.53,14.45,14.45v69.31h-6.7V48.41c0-2.73-5.43-8.17-8.17-8.17h-15.29v60.3h-6.7V22.44c0-1.81,3.64-2.57,5.02-2.51l-11.57-11.49-11.88,11.49c1.39-.06,5.02.7,5.02,2.51v81.45h-6.7v-63.65H14.87c-2.74,0-8.17,5.44-8.17,8.17v15.29H0v-15.7c0-5.92,8.52-14.45,14.45-14.45h116.21v-6.7h-7.75c-1.72,0-3.26-4.06-1.66-5.43L141.54,1.08c1.03-1.06,2.43-1.32,3.8-.85l21.53,21.19c1.61,1.37.07,5.43-1.66,5.43h-7.75Z"/>
      <path class="cls-1" d="M123.96,110.59h-6.7v-53.6h-13.4v77.05H16.75v-6.7h13.4v-27.85c0-1.38,2.34-2.21,3.54-2.32,6.5-.59,13.91.46,20.51.04.9-.11,2.75,1.61,2.75,2.28v27.85h6.7v-51.3c0-1.38,2.34-2.21,3.54-2.32,6.5-.59,13.91.46,20.51.04.9-.11,2.75,1.61,2.75,2.28v51.3h6.7V52.59c0-.66,1.85-2.39,2.75-2.28,6.6.41,14.01-.63,20.51-.04,1.2.11,3.54.94,3.54,2.32v58ZM83.75,80.44h-13.4v46.9h13.4v-46.9ZM50.25,103.89h-13.4v23.45h13.4v-23.45Z"/>
      <path class="cls-1" d="M6.7,70.39v70.35h93.81v6.7H6.7c-.39,4.53.34,8.69,4.22,11.48.67.48,3.36,1.92,3.94,1.92h88.99v6.7h-24.29l-7.96,26.8h44.39l-3.38-12.3,6.06-1.97,4.44,14.27h7.54v6.7H56.95v-6.7h7.54l7.96-26.8H14.45c-5.93,0-14.45-8.53-14.45-14.45v-82.71h6.7Z"/>
      <path class="cls-1" d="M143.14,107.37c28.42-2.55,50.6,23.24,43.01,50.96-.94,3.43-2.66,6.47-3.92,9.76,4.69,5.77,11.69,10.74,16.29,16.41,7.19,8.88-2.52,20.34-12.38,15.31l-18.08-17.55c-3.19,1.21-6.12,2.89-9.43,3.82-29.74,8.41-57.24-17.84-50.45-47.93,3.64-16.14,18.41-29.29,34.97-30.78ZM143.97,114.07c-25.93,2.53-39.01,33.07-23.12,53.87,14.38,18.82,43.9,16.78,55.63-3.77,13.54-23.73-5.41-52.74-32.51-50.1ZM178.19,173.42l-4.81,4.81,15.51,15.48c2.82,1.84,6.09-.3,5.34-3.66l-16.04-16.63Z"/>
      <path class="cls-1" d="M184.26,20.14h-6.7c-.09-7.46-5.94-13.31-13.4-13.4V.04c10.93-.07,20.18,9.16,20.1,20.1Z"/>
      <rect class="cls-1" x="16.75" y="46.94" width="6.7" height="6.7"/>
      <rect class="cls-1" x="30.15" y="46.94" width="6.7" height="6.7"/>
      <rect class="cls-1" x="43.55" y="46.94" width="6.7" height="6.7"/>
      <path class="cls-1" d="M144.39,120.77c36.32-3.7,40.21,50.8,5.31,53.47-35.29,2.7-39.39-50-5.31-53.47ZM144.8,127.46c-25.17,3.03-21.89,41.87,4.06,40.08,26.77-1.85,23.24-43.37-4.06-40.08Z"/>
      <path class="cls-1" d="M147.41,134.05v6.7c-3.7-.05-6.75,2.99-6.7,6.7h-6.7c-.07-7.36,6.07-13.48,13.4-13.4Z"/>
    </g>
  </g>
</svg>