<?xml version="1.0" encoding="UTF-8"?>
<svg id="Layer_2" data-name="Layer 2" xmlns="http://www.w3.org/2000/svg" viewBox="0 0 80.89 81.1">
  <defs>
    <style>
      .cls-1 {
        fill: #231f20;
      }
    </style>
  </defs>
  <g id="Layer_1-2" data-name="Layer 1">
    <g id="Xw0xrU">
      <g>
        <path d="M6.9,11.03v62.96h62.96l-2.23-.98c-1.33-.91-.3-3.27,1.38-2.82l11.52,4.41c.36.56.43,1.78-.14,2.25l-11.61,4.26c-1.44-.1-1.8-1.06-1.42-2.39.2-.71,1.36-.85,1.99-1.11.35-.15.64.15.52-.53H4.64c-.1,0-.83-.94-.83-1.07V11.27c-.92.62-.52,2.37-1.79,2.61-1.48.29-2.16-.58-1.99-1.99.11-.94,3.3-9.65,3.84-10.66C4.53-.02,6.1-.38,6.85.98l3.96,11.2c-.04,1.76-1.95,2.45-2.93.83-.38-.64-.3-1.6-.99-1.98Z"/>
        <path d="M69.07,11.79c1.55-.47,2.93,1.43,1.62,2.57l-54.52,54.52c-1.41,1.51-3.37-.23-2.39-1.92L69.07,11.79Z"/>
        <path d="M69.56,25.33c1.46-.13,2.17,1.83,1.14,2.82l-40.75,40.74c-1.57,1.63-3.9-.69-2.27-2.27l40.74-40.75c.3-.25.76-.51,1.14-.54Z"/>
        <path d="M55.53,11.78c1.56-.32,2.53,1.09,1.74,2.47L16.06,55.47c-2.02.98-3.39-1-1.92-2.63L54.52,12.45c.28-.28.62-.58,1.01-.67Z"/>
        <path d="M41.75,11.79c2.04-.61,2.92,1.8,1.38,3.05l-26.49,26.49c-1.55,1.68-3.89.57-2.87-1.68l27.98-27.86Z"/>
        <path d="M70.74,39.36c.59.55.69,1.79-.05,2.32l-27.08,27.08c-1.74,1.87-3.81-.45-2.27-2.27,2.55-3,5.91-5.64,8.68-8.42,6.28-6.3,12.4-12.75,18.89-18.89.47-.23,1.46-.18,1.84.18Z"/>
        <path d="M69.31,52.64c1.56-.29,2.57,1.68,1.38,2.82l-13.55,13.53c-1.53,1.32-3.69-.66-2.26-2.26,4.59-3.73,8.95-10.09,13.54-13.55.28-.21.52-.49.89-.55Z"/>
        <path d="M13.85,28.07c-.5-.53-.39-1.91.18-2.43,4.5-3.75,8.66-9.66,13.18-13.19,1.89-1.48,3.58-.52,2.75,1.8l-13.78,13.77c-.58.62-1.76.65-2.32.05Z"/>
        <path d="M78.81,50.28c.69-.16,1.53-.03,1.84.67.2.45.25,5.61.12,6.29-.3,1.55-2.84,1.45-3.09-.7-.11-.99-.14-5.22.37-5.82.19-.22.48-.37.76-.43Z"/>
        <path d="M23.93.15c.76-.17,4.83-.17,5.6,0,1.63.36,1.91,2.73.04,3.02-.78.12-5.24.15-5.87-.04-1.28-.37-1.21-2.65.24-2.99Z"/>
        <path d="M78.24,11.1c.8-.65,2.34-.25,2.54.76.14.73.14,5.2,0,5.93-.29,1.49-2.76,1.5-3.07-.48-.15-.95-.15-4-.02-4.99.04-.36.29-1.01.55-1.22Z"/>
        <path d="M79.06,23.89c1.08-.19,1.62.53,1.73,1.5.12,1.01.16,4.55-.01,5.46-.28,1.52-2.85,1.61-3.09-.46-.11-.97-.14-4.31.06-5.18.13-.57.73-1.22,1.31-1.32Z"/>
        <path d="M43.65.64c.65.8.25,2.34-.76,2.54-.73.14-5.2.14-5.93,0-1.53-.29-1.38-2.78.48-3.07.97-.15,3.99-.15,4.98-.02.36.04,1.01.29,1.22.55Z"/>
        <path d="M50.3.15c.75-.17,5.11-.16,5.78.05,1.31.43,1.3,2.71-.14,2.98-.73.14-5.45.1-6.07-.1-1.37-.45-1.08-2.6.42-2.93Z"/>
        <path d="M69.79,2.89c-.42.39-5.95.45-6.66.25-1.03-.3-1.26-2.02-.4-2.68.64-.5,5.31-.51,6.24-.31,1.22.27,1.7,1.9.82,2.74Z"/>
        <path d="M80.49,44.71c-.7.7-2.47.43-2.74-.83-.21-.93-.19-5.6.31-6.24.66-.85,2.38-.62,2.68.4.2.7.14,6.28-.24,6.66Z"/>
        <path d="M80.48,5.27c-1.3,1.37-3.34-.41-2.79-2.08-2.54.8-3.36-2.71-1.06-3.07.86-.13,3.39-.19,3.92.56.37.52.37,4.11-.08,4.59Z"/>
        <path d="M17.29,2.9c-.38.39-3.71.42-4.29.25-.66-.2-1.02-1.3-.84-1.92.42-1.47,4.37-1.52,5.19-.54.46.56.42,1.73-.06,2.21Z"/>
        <path d="M80.48,68.46c-.84.88-2.47.39-2.74-.82-.14-.62-.14-2.36,0-2.99.34-1.54,2.6-1.78,2.99-.48.18.6.14,3.87-.25,4.29Z"/>
      </g>
      <g>
        <path class="cls-1" d="M6.9,11.03v62.96h62.96l-2.23-.98c-1.33-.91-.3-3.27,1.38-2.82l11.52,4.41c.36.56.43,1.78-.14,2.25l-11.61,4.26c-1.44-.1-1.8-1.06-1.42-2.39.2-.71,1.36-.85,1.99-1.11.35-.15.64.15.52-.53H4.64c-.1,0-.83-.94-.83-1.07V11.27c-.92.62-.52,2.37-1.79,2.61-1.48.29-2.16-.58-1.99-1.99.11-.94,3.3-9.65,3.84-10.66C4.53-.02,6.1-.38,6.85.98l3.96,11.2c-.04,1.76-1.95,2.45-2.93.83-.38-.64-.3-1.6-.99-1.98Z"/>
        <path class="cls-1" d="M69.07,11.79c1.55-.47,2.93,1.43,1.62,2.57l-54.52,54.52c-1.41,1.51-3.37-.23-2.39-1.92L69.07,11.79Z"/>
        <path class="cls-1" d="M69.56,25.33c1.46-.13,2.17,1.83,1.14,2.82l-40.75,40.74c-1.57,1.63-3.9-.69-2.27-2.27l40.74-40.75c.3-.25.76-.51,1.14-.54Z"/>
        <path class="cls-1" d="M55.53,11.78c1.56-.32,2.53,1.09,1.74,2.47L16.06,55.47c-2.02.98-3.39-1-1.92-2.63L54.52,12.45c.28-.28.62-.58,1.01-.67Z"/>
        <path class="cls-1" d="M41.75,11.79c2.04-.61,2.92,1.8,1.38,3.05l-26.49,26.49c-1.55,1.68-3.89.57-2.87-1.68l27.98-27.86Z"/>
        <path class="cls-1" d="M70.74,39.36c.59.55.69,1.79-.05,2.32l-27.08,27.08c-1.74,1.87-3.81-.45-2.27-2.27,2.55-3,5.91-5.64,8.68-8.42,6.28-6.3,12.4-12.75,18.89-18.89.47-.23,1.46-.18,1.84.18Z"/>
        <path class="cls-1" d="M69.31,52.64c1.56-.29,2.57,1.68,1.38,2.82l-13.55,13.53c-1.53,1.32-3.69-.66-2.26-2.26,4.59-3.73,8.95-10.09,13.54-13.55.28-.21.52-.49.89-.55Z"/>
        <path class="cls-1" d="M13.85,28.07c-.5-.53-.39-1.91.18-2.43,4.5-3.75,8.66-9.66,13.18-13.19,1.89-1.48,3.58-.52,2.75,1.8l-13.78,13.77c-.58.62-1.76.65-2.32.05Z"/>
        <path class="cls-1" d="M78.81,50.28c.69-.16,1.53-.03,1.84.67.2.45.25,5.61.12,6.29-.3,1.55-2.84,1.45-3.09-.7-.11-.99-.14-5.22.37-5.82.19-.22.48-.37.76-.43Z"/>
        <path class="cls-1" d="M23.93.15c.76-.17,4.83-.17,5.6,0,1.63.36,1.91,2.73.04,3.02-.78.12-5.24.15-5.87-.04-1.28-.37-1.21-2.65.24-2.99Z"/>
        <path class="cls-1" d="M78.24,11.1c.8-.65,2.34-.25,2.54.76.14.73.14,5.2,0,5.93-.29,1.49-2.76,1.5-3.07-.48-.15-.95-.15-4-.02-4.99.04-.36.29-1.01.55-1.22Z"/>
        <path class="cls-1" d="M79.06,23.89c1.08-.19,1.62.53,1.73,1.5.12,1.01.16,4.55-.01,5.46-.28,1.52-2.85,1.61-3.09-.46-.11-.97-.14-4.31.06-5.18.13-.57.73-1.22,1.31-1.32Z"/>
        <path class="cls-1" d="M43.65.64c.65.8.25,2.34-.76,2.54-.73.14-5.2.14-5.93,0-1.53-.29-1.38-2.78.48-3.07.97-.15,3.99-.15,4.98-.02.36.04,1.01.29,1.22.55Z"/>
        <path class="cls-1" d="M50.3.15c.75-.17,5.11-.16,5.78.05,1.31.43,1.3,2.71-.14,2.98-.73.14-5.45.1-6.07-.1-1.37-.45-1.08-2.6.42-2.93Z"/>
        <path class="cls-1" d="M69.79,2.89c-.42.39-5.95.45-6.66.25-1.03-.3-1.26-2.02-.4-2.68.64-.5,5.31-.51,6.24-.31,1.22.27,1.7,1.9.82,2.74Z"/>
        <path class="cls-1" d="M80.49,44.71c-.7.7-2.47.43-2.74-.83-.21-.93-.19-5.6.31-6.24.66-.85,2.38-.62,2.68.4.2.7.14,6.28-.24,6.66Z"/>
        <path class="cls-1" d="M80.48,5.27c-1.3,1.37-3.34-.41-2.79-2.08-2.54.8-3.36-2.71-1.06-3.07.86-.13,3.39-.19,3.92.56.37.52.37,4.11-.08,4.59Z"/>
        <path class="cls-1" d="M17.29,2.9c-.38.39-3.71.42-4.29.25-.66-.2-1.02-1.3-.84-1.92.42-1.47,4.37-1.52,5.19-.54.46.56.42,1.73-.06,2.21Z"/>
        <path class="cls-1" d="M80.48,68.46c-.84.88-2.47.39-2.74-.82-.14-.62-.14-2.36,0-2.99.34-1.54,2.6-1.78,2.99-.48.18.6.14,3.87-.25,4.29Z"/>
      </g>
    </g>
  </g>
</svg>