<?xml version="1.0" encoding="UTF-8"?>
<svg id="Layer_2" data-name="Layer 2" xmlns="http://www.w3.org/2000/svg" viewBox="0 0 195.49 196.25">
  <defs>
    <style>
      .cls-1 {
        fill: #4f46e5;
      }
    </style>
  </defs>
  <g id="Layer_1-2" data-name="Layer 1">
    <g id="NQsZx7.tif">
      <g>
        <path class="cls-1" d="M98.13,0c3.36,1.15,3.75,5.34,5.52,8.08,2.72,1.24,9.88.22,9.42,4.72-.18,1.75-4.59,5.37-5.69,7.02l.76,5.42c11.11,1.44,21.9,5.26,31.37,11.17.76-4.28,3.08-7.93,6.34-10.72,1.64-1.41,4.76-3.95,6.91-2.71,1.07.61,6,7.78,6.85,9.25,3.93,6.86,3.57,14.31-.89,20.81,1.87,1.38,3.6,5.56,5.13,6.77.6.47.23.36.77,0,1.56-1.04,2.66-2.91,4.68-4.15,2.75-1.69,11.29-5.15,12.96-1.22,1.04,2.46,2.32,12.01,2.06,14.71-.57,5.93-4.3,11.54-9.57,14.28l1.75,8.58c.38.54.51.32.98.2,1.63-.4,3.27-1.48,5.2-1.7,2.65-.31,9.65.17,11.76,1.85.51.41.44,1.21,1.04,1.56v1.92c-2.47,6.88-2.69,13.29-8.81,18.21-3.04,2.44-6.38,3.4-10.18,4.01l-2.1,8.83c4.36.07,8.02,1.09,11.62,3.52,2.39,1.62,5.69,3.81,4.05,6.97-.61,1.19-5.1,6.3-6.27,7.53-5.61,5.88-12.89,7.75-20.66,5.03l-5.59,7.04c3.5,1.97,6.25,3.79,8.51,7.2,2.43,3.65,4.91,7.32.05,9.8-9.32,4.77-16.87,7.78-26.33,1.14-.64-.45-1.37-1.46-1.8-1.68-.88-.44-6.71,3.9-8.42,3.66l3.52,5.87c.44,1.08,1.46,4.05,1.46,5.05v6.13c0,.55-1.45,1.7-1.92,2.11h-13.03c-6.63-1.49-12.77-5.83-14.61-12.61h-14.49c-1.83,6.77-7.97,11.12-14.61,12.61h-13.03c-.47-.41-1.92-1.56-1.92-2.11v-6.52c0-.71,1.1-3.8,1.46-4.67l3.52-5.87c-1.72.24-7.55-4.11-8.42-3.66-.43.22-1.16,1.23-1.8,1.68-9.29,6.52-18.29,3.7-27.37-1.63-3.63-2.13-.67-6.67,1.09-9.31,2.26-3.4,5.01-5.23,8.51-7.2l-5.59-7.04c-7.78,2.72-15.05.86-20.66-5.03-1.17-1.23-5.66-6.34-6.27-7.53-1.64-3.17,1.66-5.36,4.05-6.97,3.6-2.43,7.26-3.45,11.62-3.52l-2.1-8.83c-3.8-.61-7.14-1.57-10.18-4.01-6.12-4.92-6.34-11.33-8.81-18.21v-1.92c.6-.35.52-1.15,1.04-1.56,2.11-1.68,9.11-2.16,11.76-1.85,1.93.23,3.57,1.31,5.2,1.7.47.11.6.34.98-.2l1.75-8.58c-5.27-2.74-9-8.35-9.57-14.28-.26-2.7,1.02-12.25,2.06-14.71,1.67-3.92,10.21-.47,12.96,1.22,2.02,1.24,3.11,3.1,4.68,4.15.54.36.17.48.77,0,1.53-1.21,3.26-5.39,5.13-6.77-4.44-6.48-4.86-13.97-.89-20.81.87-1.49,5.77-8.63,6.85-9.25,2.15-1.24,5.27,1.3,6.91,2.71,3.26,2.79,5.58,6.44,6.34,10.72,9.46-5.93,20.28-9.71,31.37-11.17l.76-5.42c-1.1-1.66-5.51-5.28-5.69-7.02-.46-4.5,6.71-3.49,9.42-4.72,1.77-2.74,2.16-6.93,5.52-8.08h.77ZM98.12,10.35c-1.07-.25-1.01,1.24-1.59,2.04-1.55,2.15-2.5,1.29-4.53,2.36,2.59,2,2.8,4.01,2.3,7.09,2.6-1.72,4.29-1.72,6.89,0-.55-3.21-.37-4.99,2.3-7.09-1.16-1-2.26-.26-3.64-1.34-.89-.69-1.49-1.98-1.72-3.07ZM40.64,47.91l1.35-.36c.97-1.97,7.74-6.2,8.15-7.58.82-2.77-2.61-8.64-5.1-10.07-4.45,5.47-7.71,10.9-4.4,18.01ZM154.85,47.91c3.25-7.1.08-12.53-4.4-18.01-2.5,1.42-5.92,7.3-5.1,10.07.39,1.33,7.21,5.6,8.15,7.58l1.35.36ZM93.06,30.78c-56.77,3.53-88.46,68.37-55.81,115.38,31,44.63,98.48,41.39,124.81-6.14,28.22-50.93-11.15-112.85-69-109.24ZM18.41,59.42c-1.59,6.88-2.18,13.21,4.01,18l5.09-11.24c-1.49-3.46-5.17-6.81-9.1-6.76ZM177.08,59.42c-3.94-.05-7.61,3.3-9.1,6.76l5.09,11.24c6.19-4.78,5.6-11.11,4.01-18ZM18.4,111.54c.21-1.24-.35-2.41-.4-3.63-.06-1.8.41-7.83-.34-8.86-1.3-1.8-8.63-3.37-10.4-2.28-.48.32-.27.57-.22.98.17,1.18,1.06,4.28,1.49,5.45,1.57,4.27,5.13,8,9.86,8.35ZM177.09,111.54c5.52-.53,8.55-4.66,10.15-9.58.28-.87,1.61-4.8.98-5.19-2.39-.79-8.92.24-10.4,2.28-.75,1.03-.27,7.06-.34,8.86-.04,1.21-.6,2.38-.4,3.63ZM12.27,135.7c2.5,3.55,6.34,8.52,10.96,9.16.92.13,5.35.31,5.53-.55-1.36-1.47-4.45-10.14-5.37-10.72-2.77-1.71-8.59.47-11.11,2.11ZM183.22,135.7c-2.61-1.56-8.27-3.87-11.11-2.11-.93.57-4.01,9.24-5.37,10.72.18.86,4.61.68,5.53.55,4.62-.63,8.46-5.61,10.96-9.16ZM33.73,169.42c2.46.38,4.51,2.2,6.91,2.87,4.1,1.14,8.27.56,11.49-2.3l-9.37-7.83c-3.87.9-7.76,3.3-9.03,7.26ZM161.76,169.42c-1.27-3.96-5.16-6.36-9.03-7.26l-9.37,7.83c3.22,2.86,7.38,3.44,11.49,2.3,2.4-.67,4.45-2.49,6.91-2.87ZM67.08,190.12h8.24c2.7,0,8.31-4.42,9.01-7.28l-11.7-2.94c-3.42,2.15-5.44,6.17-5.55,10.22ZM128.41,190.12c-.12-4.05-2.13-8.06-5.55-10.22l-11.7,2.94c.7,2.86,6.31,7.28,9.01,7.28h8.24Z"/>
        <path class="cls-1" d="M127.54,18.47c4.49-.98,5.27,5.21,1.74,5.98-4.49.98-5.27-5.21-1.74-5.98Z"/>
        <path class="cls-1" d="M66.21,18.47c4.49-.98,5.27,5.21,1.74,5.98-4.49.98-5.27-5.21-1.74-5.98Z"/>
        <path class="cls-1" d="M93.45,39.98c51.43-3.36,85.99,52.32,59.8,96.98-23.12,39.43-79.63,42.62-107.03,5.98-30.62-40.94-3.47-99.66,47.23-102.96ZM93.45,46.11c-46.14,3.39-70.44,57.61-41.47,94.14,24.62,31.04,71.99,29.32,94.15-3.51,27.13-40.19-4.59-94.16-52.68-90.63Z"/>
        <path class="cls-1" d="M125.64,93.05c.23-.29.5-1.81.99-2.65,3.78-6.37,13.11-5.92,16.24.73,3.08,6.55-1.95,12.7-8.52,13.5l-7.7,21.08c-.48,1.37,1.56,2.15,2.54,3.26,5.12,5.81,1.16,14.48-6.32,15.16-15.94,1.46-34.07-1.14-50.25,0-8.48-1.5-11.52-9.65-5.36-16.13.67-.7,1.94-.89,1.68-2l-7.8-21.38c-6.8-.87-11.9-7.46-8.26-14s12.47-6.32,16.12,0c.41.71.68,2.31,1,2.54.39.28,8.62,1.5,9.56,1.51.46,0,.9.05,1.32-.21l9.43-14.75c-.84-3.01-2.21-4.35-1.67-7.78,1.57-9.88,16.63-10,18.21,0,.54,3.42-.83,4.77-1.67,7.78l9.21,14.58c.45.42.98.38,1.54.38,1-.01,9.4-1.26,9.71-1.64ZM96.87,70.6c-3.53.77-2.75,6.96,1.74,5.98,3.53-.77,2.75-6.96-1.74-5.98ZM99.97,82.87h-4.45l-11.43,17.89c-.69.45-1.44.47-2.24.44-3.82-.15-8.42-1.56-12.32-1.91l-2.64,2.65,8.28,23.74h45.15l8.28-23.74-2.64-2.65c-3.9.35-8.5,1.76-12.32,1.91-.8.03-1.54.01-2.24-.44l-11.43-17.89ZM60.07,92.07c-3.53.77-2.75,6.96,1.74,5.98,3.53-.77,2.75-6.96-1.74-5.98ZM133.67,92.07c-3.53.77-2.75,6.96,1.74,5.98,3.53-.77,2.75-6.96-1.74-5.98ZM72.34,131.94c-3.31,1.11-2.82,5.76.68,6.06h49.46c3.88-.39,3.88-5.77,0-6.15l-50.14.09Z"/>
      </g>
    </g>
  </g>
</svg>