<?xml version="1.0" encoding="UTF-8"?>
<svg id="Layer_2" data-name="Layer 2" xmlns="http://www.w3.org/2000/svg" viewBox="0 0 165.42 192.02">
  <defs>
    <style>
      .cls-1 {
        fill: #ffd586;
      }
    </style>
  </defs>
  <g id="Layer_1-2" data-name="Layer 1">
    <g>
      <path class="cls-1" d="M70.5,0c.9.75,1.65,1.19,1.85,2.46.48,3.05.4,14.03.03,17.24-.44,3.82-5.58,3.81-6.02,0-.37-3.22-.45-14.18.03-17.24.2-1.27.95-1.71,1.85-2.46h2.25Z"/>
      <path class="cls-1" d="M124.5,124.5l9.63,19.89h3.88c-.46-3.82.32-8.55,4.78-9.3,2.99-.5,14.04-.48,17.13-.06,2.81.38,5.05,2.91,5.11,5.76-1,14.65,1.28,30.95,0,45.41-.29,3.32-2.45,5.61-5.81,5.81h-82.16s-2.53-.47-2.53-.47c-19.77-16.29-38.49-34.04-57.84-50.92-3.91-4.7-4.23-11.19-.56-16.13H7.31c-.33,0-2.62-1.1-3.09-1.41-7.65-4.88-4.16-16.2,4.58-16.61l121.49.05c6.52,1.23,10.09,8.49,6,14.19-.97,1.36-3.96,3.78-5.59,3.78h-6.19ZM8.14,112.58c-3.42,1.19-2.64,6,1.03,5.94l120.98-.19c2.55-1.12,2.52-4.57,0-5.66l-122.01-.09ZM58.5,124.5h-21.38l29.25,26.63c-3.45-8.64-13.49-16.66-7.87-26.63ZM67.02,124.58c-2.83.64-5.25,5.87-3.82,8.55l15,25.87.68.34c2.86-2.1,6.87-3.35,9.75-5.27.37-.25,1-.53.85-1.08l-14.47-26.05c-1.69-2.61-5.12-3.01-7.98-2.36ZM100.5,124.5h-19.88l14.24,25.72c.92.6,4.34-2.53,5.63-2.47v-23.25ZM130.13,150.38l-12.56-25.88h-11.06v26.44l-31.23,16.64-44.55-40.61c-6.51-5.02-14.68,3.04-9.54,9.54l55.51,49.49h61.31v-35.63h-7.88ZM159,141h-15v45h15v-45Z"/>
      <path class="cls-1" d="M80.68,51.7l21.05.14c4.9,1.39,6.53,6.84,2.72,10.42-2.1,1.97-16.08,10.43-16.23,11.41l6.2,18.49c.49,4.61-3.91,8.19-8.27,6.38l-17.27-11.47-16.75,11.36c-4.18,2-8.93-1.35-8.6-5.94l6.26-18.82c-.15-.94-13.66-9.23-15.63-10.89-4.51-3.8-2.91-10.38,2.78-11.03,2.94-.34,19.53.5,20.39-.05l6.35-18.59c2.45-4.08,7.88-4.2,10.52-.24l6.48,18.83ZM61.31,57.75h-23.44l18.95,13.48-6.95,21.39,18.99-13.08,19.25,13.08-6.94-21.39,18.95-13.48h-23.44l-7.87-21.38-7.5,21.38Z"/>
      <path class="cls-1" d="M113.54,18.44c2.56-.34,4.5,2.92,2.71,5l-14.27,14.23c-2.52,1.65-5.46-.27-4.79-3.27.56-2.51,12.5-12.11,14.54-15.1.48-.41,1.18-.77,1.8-.86Z"/>
      <path class="cls-1" d="M40.77,37.4c-1.31,1.31-3.04.95-4.4-.07-1.91-1.44-12.71-12.12-13.87-13.88-2.16-3.28,1.54-6.57,4.52-4.14l14.03,14.09c.95.96.58,3.15-.27,4Z"/>
    </g>
  </g>
</svg>