<?xml version="1.0" encoding="UTF-8"?>
<svg id="Layer_2" data-name="Layer 2" xmlns="http://www.w3.org/2000/svg" viewBox="0 0 193.63 195.06">
  <defs>
    <style>
      .cls-1 {
        fill: #ffd586;
      }
    </style>
  </defs>
  <g id="Layer_1-2" data-name="Layer 1">
    <g>
      <path class="cls-1" d="M101.13,134.08v15.45h-6.5v-18.09l-39.2-17.27-38.85,17.27v57.12h9.76v-43.3c0-1.34,2.27-2.15,3.44-2.26,6.31-.57,13.5.44,19.91.04.87-.1,2.67,1.57,2.67,2.21v43.3h34.15c-2.03-4.27-2.4-8.13.07-12.33,1.06-1.8,3.85-3.87,4.43-5.33.7-1.78.44-4.95.97-7.16,3.46-14.17,20.57-14.89,24.58-.57.68,2.43.5,5.9,1.22,7.72.57,1.46,3.37,3.53,4.43,5.33,3.31,5.63,1.52,12.42-3.61,16.16-.92.67-4.94,2.67-5.87,2.67H.31v-6.5h9.76v-54.47c-3.36,1.16-9.21,5.23-9.78-1-.35-3.82-.42-12.55.01-16.29.11-.91.31-1.61,1.01-2.24l54.09-23.6,3.72,1.18,50.75,22.42c.72.67.91,1.28,1.02,2.23.43,3.74.36,12.46.01,16.29-.57,6.22-6.42,2.16-9.78,1ZM104.38,119.04l-48.61-21.14L6.81,119.04v9.35l48.59-21.17,48.98,21.17v-9.35ZM45.84,149.53h-13.01v39.03h13.01v-39.03ZM103.46,159.38c-6.41,1.11-4.82,9.22-6.21,13.31-1.21,3.55-5.71,6.31-5.91,9.16-.22,3.2,2.59,6.04,5.61,6.61,2.32.43,12.88.4,15.17-.08,2.15-.46,4.57-2.47,5.08-4.67.96-4.09-1.87-4.97-3.82-7.62-3.59-4.89-1.55-9.15-4.12-13.77-1.24-2.22-3.23-3.39-5.81-2.94Z"/>
      <path class="cls-1" d="M23.07,15.17c.07-.34.89-1.38,1.23-1.62,2.19-1.53,14.51-.06,15.04-.62.75-17.24,25.19-17.26,26.02,0l68.88.03,1.86.98,23.57,23.99v43.3h-6.5v-39.03h-20.53c-.48,0-2.24-1.76-2.24-2.24v-20.53H52.34v-6.5h6.5c-.35-8.45-12.26-8.86-13.03-.22-.58,6.54.39,14.02.1,20.66.83,3.72,6.42,2.28,6.42.09v-7.52h6.5v8.33c0,.24-1.1,2.67-1.36,3.11-3.88,6.43-12.9,6.44-16.79,0-.26-.44-1.36-2.87-1.36-3.11v-14.84h-9.76v74.8h-6.5V15.17ZM148.28,35.7l-11.38-11.38v11.38h11.38Z"/>
      <path class="cls-1" d="M177.55,120.67l-5.69-3.46,12.84-19.28c.17-.9-4.1-5.3-4.7-4.9l-41.06,61.18-14.23,8.16c-7.59,2.05-2-14.33-2.34-17.82,15.42-23.76,31.26-47.55,47.37-70.93,1.93-2.8,5.55-8.98,7.85-10.85,8.14-6.63,19.41,2.01,15.08,11.82-1.02,2.32-8.23,11.29-8.2,12.54,1.73,3.39,8.54,7.28,7.63,11.29l-14.56,22.24ZM183.14,67.08c-2.26.47-5.86,7.68-7.56,9.58-.26,1.07,3.3,4.43,4.21,5.38,1.19-2.56,6.65-8.47,7.09-10.78.48-2.53-1.15-4.72-3.75-4.18ZM171.66,82.87l-30.13,44.3c-.43,1.51,3.66,2.98,4.58,4.04l29.63-43.07v-.78s-4.08-4.47-4.08-4.47ZM127.96,152.78l6.27-3.28,8.21-12.15-.02-.83c-1.57-.65-4.06-4.03-5.52-2.65-2.63,2.49-5.11,8.78-7.89,11.62l-1.05,7.28Z"/>
      <rect class="cls-1" x="42.59" y="64.97" width="97.57" height="6.5"/>
      <rect class="cls-1" x="42.59" y="77.98" width="97.57" height="6.5"/>
      <rect class="cls-1" x="62.1" y="51.96" width="78.05" height="6.5"/>
      <path class="cls-1" d="M61.17,149.62c6.5.4,14.32-.83,20.65-.1,2.21.26,2.87,1.39,3.06,3.45.35,3.82.42,12.55-.01,16.29-.26,2.21-1.39,2.87-3.45,3.06-4.56.42-15.08.51-19.54-.01-1.87-.22-2.83-1.17-3.05-3.05-.41-3.55-.41-13.13,0-16.69.17-1.5.84-2.51,2.33-2.95ZM78.36,156.04h-13.01v9.76h13.01v-9.76Z"/>
      <path class="cls-1" d="M159.67,139.77v43.3c0,.48-1.76,2.24-2.24,2.24h-27.03v-6.5h22.77v-39.03h6.5Z"/>
      <rect class="cls-1" x="91.37" y="90.99" width="48.78" height="6.5"/>
      <rect class="cls-1" x="117.39" y="104" width="9.76" height="6.5"/>
      <rect class="cls-1" x="49.09" y="51.96" width="6.5" height="6.5"/>
      <rect class="cls-1" x="36.08" y="130.02" width="6.5" height="6.5"/>
    </g>
  </g>
</svg>