<?xml version="1.0" encoding="UTF-8"?>
<svg id="Layer_2" data-name="Layer 2" xmlns="http://www.w3.org/2000/svg" viewBox="0 0 175.22 174.89">
  <defs>
    <style>
      .cls-1 {
        fill: #ffd586;
      }
    </style>
  </defs>
  <g id="Layer_1-2" data-name="Layer 1">
    <g id="HZGGPc.tif">
      <g>
        <path class="cls-1" d="M.06,128.78c.4-3.34,2.85-8.25,5.13-10.75,8.79-9.64,22.31-5.27,33.8-6.48l59.55-23.78c2.03.05,3.34,1.23,3.58,3.26l-.03,25.25c15.75,4.08,15.95,26,.06,29.96l-.03,25.42c-.21,1.76-1.01,2.38-2.4,3.24h-2.05l-54.95-22.2v19.3c0,1.07-1.79,2.5-2.73,2.9h-15.36c-1.48-.78-2.45-1.51-2.7-3.28l-.03-20.63c-10.87.85-20-6.4-21.85-17.08.14-1.64-.19-3.53,0-5.12ZM95.29,96.33l-8.48,3.64-.14,37.43c-1.18,3.61-6.74,2.44-6.74-.94v-33.98l-37.04,15.02-.11,27.45,52.51,21.4v-70.02ZM35.9,118.53h-17.58c-6.05,0-11.38,7.03-11.46,12.8s5.49,12.81,11.46,12.81h17.58v-25.62ZM102.11,139.02c6.77-2.68,6.77-12.69,0-15.37v15.37ZM35.9,150.98h-7.17v17.08h7.17v-17.08Z"/>
        <path class="cls-1" d="M124.98,66.96v11.1c0,.38-1.01,2.99-1.29,3.49-1.13,1.93-3.83,3.61-6.04,3.86l-68.53.07c-4.42,3.48-8.21,8.99-12.52,12.4-1.54,1.22-3.28,2.01-5.12.67-2.48-1.8-.94-10.23-1.37-13.14h-4.95c-2.51,0-6.75-4.63-6.66-7.34V22.71c.39-3.97,3.4-7.05,7.34-7.67h58.2c-.42-7.7,4.78-14.13,12.5-14.99l65.16-.05c7.24.57,12.35,5.63,13.12,12.83-.97,13.31,1.33,28.54-.04,41.62-.59,5.7-6.01,12.51-12.07,12.51h-37.71ZM96.57,6.93c-3.36.63-5.44,3.17-5.73,6.56-1.11,12.86.85,27.29.02,40.31.25,3.42,3.2,6.25,6.64,6.33h63.85c3.8-.23,6.33-2.91,6.66-6.66,1.11-12.86-.85-27.29-.02-40.31-.25-3.42-3.2-6.25-6.64-6.33l-64.77.1ZM84.02,21.87H26.17c-.06,0-.6.53-.68.69l.13,55.53c1.1,1.41,7.9-.63,10.25,1.36.15.13,1.05,1.26,1.05,1.34v6.66c3.52-2.67,6.01-7.02,10.09-8.86l70.46-.19c.15-.09.68-.93.68-1.02v-10.42h-22.01c-5.24,0-12.12-6.88-12.12-12.13V21.87Z"/>
        <path class="cls-1" d="M126.26,128.18l21.06-.07c3.45.55,3.85,6.17-.69,6.78-5.94.8-13.56-.47-19.69-.05-3.58-.91-4.18-5.08-.68-6.67Z"/>
        <path class="cls-1" d="M120.79,146.95c1.07-.24,1.89-.12,2.81.46.78.49,7.15,6.88,7.68,7.68,2.15,3.3-1.2,7.06-4.91,4.57-.88-.59-6.83-6.51-7.35-7.34-1.16-1.85-.5-4.87,1.76-5.38Z"/>
        <path class="cls-1" d="M127.27,102.21c3.12-.72,5.47,1.82,4.04,4.73-.51,1.05-6.29,6.87-7.39,7.63-3.58,2.48-6.88-1.09-5.04-4.37.44-.79,6.2-6.55,7.11-7.22.43-.32.69-.64,1.27-.77Z"/>
        <path class="cls-1" d="M82.56,146.95c4.89-1.13,5.84,6.32,1.21,6.69-4.18.33-5.01-5.81-1.21-6.69Z"/>
        <path class="cls-1" d="M116.69,16.82c.95-.28,2.41-.14,3.31.3,6.7,4.2,13.86,7.7,20.57,11.86,3,1.86,6.31,3.56,2.76,7.32-7.62,3.58-15.55,10.15-23.11,13.42-2.65,1.14-4.91.6-5.48-2.4.77-8.72-1.01-19.17,0-27.68.11-.96.98-2.53,1.95-2.82ZM121.57,41l12.07-6.88.56-.8-12.63-7.35v15.03Z"/>
        <path class="cls-1" d="M38.54,35.95l35.05-.06c4.05.63,4.12,6.28-.31,6.82l-34.46-.03c-3.88-.6-4.06-5.81-.29-6.73Z"/>
        <path class="cls-1" d="M38.54,55.08l22.43-.06c3.84,1.19,3.93,5.55,0,6.79-6.76-.69-15.65,1-22.14,0-3.88-.6-4.06-5.81-.29-6.73Z"/>
        <path class="cls-1" d="M72.68,55.07c4.47-.85,5.46,6.32.9,6.76-4.09.39-5.12-5.96-.9-6.76Z"/>
      </g>
    </g>
  </g>
</svg>